<svg width="20" height="16" fill="none" xmlns="http://www.w3.org/2000/svg"><g clip-path="url(#a)"><path fill-rule="evenodd" clip-rule="evenodd" d="M18.258 5.829a5.258 5.258 0 0 0-3.491-1.437 6.401 6.401 0 0 0-2.55-3.008C11.25.814 10.108.5 9.067.5 6.833.5 4.75 1.758 3.625 3.772c-.483.85-.758 1.819-.817 2.949C1.158 7.367 0 9.05 0 10.928c0 2.524 1.975 4.58 4.4 4.58h10.267c2.991 0 5.333-2.439 5.333-5.55 0-1.58-.633-3.093-1.742-4.13zm-3.591 8.311H4.4c-1.683 0-3.058-1.445-3.058-3.22 0-1.412.983-2.72 2.283-3.043l.517-.128v-.527c0-1.096.216-2.005.658-2.779.883-1.597 2.517-2.583 4.267-2.583.8 0 1.716.255 2.466.688.984.604 1.8 1.649 2.117 2.72l.15.518.542-.034a3.925 3.925 0 0 1 3 1.062c.841.79 1.316 1.93 1.316 3.136-.008 2.355-1.758 4.19-3.991 4.19z" fill="#fff"/></g><defs><clipPath id="a"><path fill="#fff" transform="translate(0 .5)" d="M0 0h20v15H0z"/></clipPath></defs></svg>