<svg width="24" height="18" fill="none" xmlns="http://www.w3.org/2000/svg"><g clip-path="url(#a)"><path d="M10.894 18c2.55 0 4.618-2 4.618-4.486 0-1.27-.532-2.386-1.536-3.288-.178-.156-.22-.254-.22-.484l.009-7.183C13.765.722 12.608-.5 10.894-.5 9.163-.5 7.989.722 7.989 2.559l.017 7.183c0 .23-.042.328-.22.484-1.013.894-1.536 2.017-1.536 3.288C6.25 16 8.319 18 10.894 18zm0-1.427c-1.756 0-3.166-1.378-3.166-3.075 0-1.041.506-1.943 1.393-2.526.262-.164.363-.32.363-.647V2.616c0-1.025.566-1.68 1.41-1.68.819 0 1.385.655 1.385 1.68v7.709c0 .328.101.483.363.647.886.583 1.393 1.485 1.393 2.526 0 1.697-1.41 3.075-3.141 3.075zm4.483-13.867h1.85c.32 0 .523-.23.523-.5s-.203-.5-.523-.5h-1.85c-.32 0-.532.23-.532.5s.211.5.532.5zm0 2.272h1.85c.32 0 .523-.23.523-.5 0-.271-.203-.5-.523-.5h-1.85c-.32 0-.532.229-.532.5 0 .27.211.5.532.5zm0 2.288h1.85c.32 0 .523-.23.523-.5 0-.271-.203-.5-.523-.5h-1.85c-.32 0-.532.229-.532.5 0 .27.211.5.532.5zm-4.5 8.2c1.123 0 2.026-.877 2.026-1.976 0-.755-.439-1.386-1.089-1.722-.27-.14-.354-.238-.354-.632v-4.19c0-.418-.254-.68-.583-.68-.32 0-.574.262-.574.68v4.19c0 .394-.085.492-.355.632-.65.336-1.089.967-1.089 1.722 0 1.099.903 1.976 2.018 1.976zm4.5-5.92h1.85c.32 0 .523-.23.523-.5 0-.271-.203-.501-.523-.501h-1.85c-.32 0-.532.23-.532.5s.211.5.532.5z" fill="#fff"/></g><defs><clipPath id="a"><path fill="#fff" d="M0 0h24v17.86H0z"/></clipPath></defs></svg>