<svg width="24" height="24" fill="none" xmlns="http://www.w3.org/2000/svg"><g fill="#fff"><path d="M12.832 6.298a1.274 1.274 0 0 0-2.132.328l-.15.343a.6.6 0 1 1-1.1-.477l.149-.343a2.474 2.474 0 0 1 4.14-.637l.022.026c.168.194.305.412.407.647l.013.03a2.45 2.45 0 0 1-2.248 3.423H3.5a.6.6 0 0 1 0-1.2h8.433a1.25 1.25 0 0 0 1.147-1.746l-.013-.03a1.317 1.317 0 0 0-.213-.338l-.022-.026z"/><path d="M19.735 8.738a1.69 1.69 0 0 0-1.774-.942l-.141.02a1.883 1.883 0 0 0-1.516 1.29l-.007.024a.6.6 0 0 1-1.144-.365l.008-.023a3.083 3.083 0 0 1 2.482-2.112l.14-.021A2.89 2.89 0 0 1 21.1 9.468v.02a2.98 2.98 0 0 1-.827 2.062l-.034.034A3.1 3.1 0 0 1 18 12.54H3.5a.6.6 0 1 1 0-1.2H18a1.9 1.9 0 0 0 1.373-.586l.033-.034a1.78 1.78 0 0 0 .494-1.232v-.02a1.69 1.69 0 0 0-.165-.73zM3.5 14.25a.6.6 0 0 0 0 1.2h9.035a1.349 1.349 0 0 1 1.223.78l.032.069c.092.197.14.412.14.63v.148a1.309 1.309 0 0 1-2.221.938l-.03-.029a1.386 1.386 0 0 1-.273-.372l-.351-.698a.6.6 0 0 0-1.072.539l.35.698c.13.258.302.493.51.694l.03.029a2.509 2.509 0 0 0 4.256-1.8v-.148c0-.392-.085-.78-.251-1.136l-.033-.07a2.548 2.548 0 0 0-2.31-1.472H3.5z"/></g></svg>